<svg width="16" height="20" viewBox="0 0 16 20" fill="none" xmlns="http://www.w3.org/2000/svg">
<path d="M4.4445 4.6V2.8C4.4445 2.32261 4.6318 1.86477 4.9652 1.52721C5.2986 1.18964 5.75078 1 6.22228 1H9.77783C10.2493 1 10.7015 1.18964 11.0349 1.52721C11.3683 1.86477 11.5556 2.32261 11.5556 2.8V4.6M14.2223 4.6V17.2C14.2223 17.6774 14.035 18.1352 13.7016 18.4728C13.3682 18.8104 12.916 19 12.4445 19H3.55561C3.08411 19 2.63193 18.8104 2.29853 18.4728C1.96513 18.1352 1.77783 17.6774 1.77783 17.2V4.6H14.2223Z" stroke="white" stroke-width="2" stroke-linecap="round" stroke-linejoin="round"/>
</svg>
