<svg width="64" height="60" viewBox="0 0 64 60" fill="none" xmlns="http://www.w3.org/2000/svg">
<rect width="64" height="60" rx="5" fill="#3E5063"/>
<circle cx="20" cy="11" r="4" fill="white"/>
<circle cx="44" cy="11" r="4" fill="white"/>
<circle cx="44" cy="23" r="4" fill="white"/>
<circle cx="44" cy="35" r="4" fill="white"/>
<circle cx="20" cy="23" r="4" fill="white"/>
<circle cx="20" cy="35" r="4" fill="white"/>
<path d="M7.20068 53V45.1797H9.88086C10.7653 45.1797 11.4385 45.3569 11.9004 45.7114C12.3623 46.0659 12.5933 46.5941 12.5933 47.2959C12.5933 47.654 12.4966 47.9762 12.3032 48.2627C12.1099 48.5492 11.827 48.7712 11.4546 48.9287C11.8771 49.0433 12.203 49.2599 12.4321 49.5786C12.6649 49.8937 12.7812 50.2733 12.7812 50.7173C12.7812 51.4513 12.5449 52.0153 12.0723 52.4092C11.6032 52.8031 10.93 53 10.0527 53H7.20068ZM8.55957 49.4712V51.915H10.0688C10.495 51.915 10.828 51.8094 11.0679 51.5981C11.3078 51.3869 11.4277 51.0933 11.4277 50.7173C11.4277 49.9045 11.0124 49.4891 10.1816 49.4712H8.55957ZM8.55957 48.4722H9.8916C10.3141 48.4722 10.6436 48.3773 10.8799 48.1875C11.1198 47.9941 11.2397 47.722 11.2397 47.3711C11.2397 46.9844 11.1287 46.7051 10.9067 46.5332C10.6883 46.3613 10.3464 46.2754 9.88086 46.2754H8.55957V48.4722ZM16.8066 48.3809C16.6348 48.3522 16.4575 48.3379 16.2749 48.3379C15.6769 48.3379 15.2741 48.5671 15.0664 49.0254V53H13.7612V47.1885H15.0073L15.0396 47.8384C15.3547 47.3335 15.7915 47.0811 16.3501 47.0811C16.5363 47.0811 16.6903 47.1061 16.812 47.1562L16.8066 48.3809ZM20.6924 53C20.6351 52.889 20.585 52.7082 20.542 52.4575C20.1266 52.8908 19.6182 53.1074 19.0166 53.1074C18.4329 53.1074 17.9567 52.9409 17.5879 52.6079C17.2191 52.2749 17.0347 51.8631 17.0347 51.3726C17.0347 50.7531 17.2638 50.2786 17.7222 49.9492C18.1841 49.6162 18.8429 49.4497 19.6987 49.4497H20.499V49.0684C20.499 48.7676 20.4149 48.5277 20.2466 48.3486C20.0783 48.166 19.8223 48.0747 19.4785 48.0747C19.1813 48.0747 18.9378 48.1499 18.748 48.3003C18.5583 48.4471 18.4634 48.6351 18.4634 48.8643H17.1582C17.1582 48.5456 17.2638 48.2484 17.4751 47.9727C17.6864 47.6934 17.9728 47.4749 18.3345 47.3174C18.6997 47.1598 19.1061 47.0811 19.5537 47.0811C20.234 47.0811 20.7765 47.2529 21.1812 47.5967C21.5858 47.9368 21.7935 48.4167 21.8042 49.0361V51.6572C21.8042 52.18 21.8776 52.5972 22.0244 52.9087V53H20.6924ZM19.2583 52.0601C19.5161 52.0601 19.7578 51.9974 19.9834 51.8721C20.2126 51.7467 20.3844 51.5785 20.499 51.3672V50.2715H19.7954C19.312 50.2715 18.9486 50.3556 18.7051 50.5239C18.4616 50.6922 18.3398 50.9303 18.3398 51.2383C18.3398 51.4889 18.4222 51.6895 18.5869 51.8398C18.7552 51.9867 18.979 52.0601 19.2583 52.0601ZM24.3096 53H23.0044V47.1885H24.3096V53ZM22.9238 45.6792C22.9238 45.4787 22.9865 45.3122 23.1118 45.1797C23.2407 45.0472 23.4233 44.981 23.6597 44.981C23.896 44.981 24.0786 45.0472 24.2075 45.1797C24.3364 45.3122 24.4009 45.4787 24.4009 45.6792C24.4009 45.8761 24.3364 46.0409 24.2075 46.1733C24.0786 46.3022 23.896 46.3667 23.6597 46.3667C23.4233 46.3667 23.2407 46.3022 23.1118 46.1733C22.9865 46.0409 22.9238 45.8761 22.9238 45.6792ZM26.874 53H25.5688V44.75H26.874V53ZM29.4385 53H28.1333V44.75H29.4385V53ZM33.1738 53.1074C32.3467 53.1074 31.6753 52.8478 31.1597 52.3286C30.6476 51.8058 30.3916 51.1112 30.3916 50.2446V50.0835C30.3916 49.5034 30.5026 48.986 30.7246 48.5312C30.9502 48.0729 31.2653 47.7166 31.6699 47.4624C32.0745 47.2082 32.5257 47.0811 33.0234 47.0811C33.8148 47.0811 34.4253 47.3335 34.855 47.8384C35.2882 48.3433 35.5049 49.0576 35.5049 49.9814V50.5078H31.7075C31.7469 50.9876 31.9062 51.3672 32.1855 51.6465C32.4684 51.9258 32.8229 52.0654 33.249 52.0654C33.847 52.0654 34.334 51.8237 34.71 51.3403L35.4136 52.0117C35.1808 52.359 34.8693 52.6294 34.479 52.8228C34.0923 53.0125 33.6572 53.1074 33.1738 53.1074ZM33.0181 48.1284C32.66 48.1284 32.37 48.2537 32.1479 48.5044C31.9295 48.755 31.7899 49.1042 31.729 49.5518H34.2158V49.4551C34.1872 49.0182 34.0708 48.6888 33.8667 48.4668C33.6626 48.2412 33.3797 48.1284 33.0181 48.1284ZM38.8052 50.2017H35.9854V49.1489H38.8052V50.2017ZM45.9673 53H44.6138V49.5249H41.1172V53H39.7583V45.1797H41.1172V48.4346H44.6138V45.1797H45.9673V53ZM50.7231 52.4307C50.34 52.8818 49.7957 53.1074 49.0903 53.1074C48.4601 53.1074 47.9821 52.923 47.6562 52.5542C47.334 52.1854 47.1729 51.6519 47.1729 50.9536V47.1885H48.478V50.9375C48.478 51.6751 48.7842 52.0439 49.3965 52.0439C50.0303 52.0439 50.4582 51.8166 50.6802 51.3618V47.1885H51.9854V53H50.7554L50.7231 52.4307ZM58.1646 50.1533C58.1646 51.0557 57.9622 51.7736 57.5576 52.3071C57.1566 52.8407 56.6034 53.1074 55.8979 53.1074C55.2176 53.1074 54.6877 52.8621 54.3081 52.3716L54.2437 53H53.062V44.75H54.3672V47.7471C54.7432 47.3031 55.2498 47.0811 55.8872 47.0811C56.5962 47.0811 57.153 47.3442 57.5576 47.8706C57.9622 48.397 58.1646 49.1328 58.1646 50.0781V50.1533ZM56.8594 50.0405C56.8594 49.4103 56.7484 48.9377 56.5264 48.6226C56.3044 48.3075 55.9821 48.1499 55.5596 48.1499C54.9938 48.1499 54.5964 48.397 54.3672 48.8911V51.2866C54.5999 51.7915 55.001 52.0439 55.5703 52.0439C55.9785 52.0439 56.2936 51.8918 56.5156 51.5874C56.7376 51.283 56.8522 50.8229 56.8594 50.207V50.0405Z" fill="white"/>
</svg>
